<svg xmlns="http://www.w3.org/2000/svg" xmlns:xlink="http://www.w3.org/1999/xlink" width="500" zoomAndPan="magnify" viewBox="0 0 375 374.999991" height="500" preserveAspectRatio="xMidYMid meet" version="1.0"><defs><filter x="0%" y="0%" width="100%" height="100%" id="1a63ee951e"><feColorMatrix values="0 0 0 0 1 0 0 0 0 1 0 0 0 0 1 0 0 0 1 0" color-interpolation-filters="sRGB"/></filter><g/><clipPath id="5b2d77250a"><path d="M 0 0 L 368.261719 0 L 368.261719 375 L 0 375 Z M 0 0 " clip-rule="nonzero"/></clipPath><linearGradient x1="66.046997" gradientTransform="matrix(0.750568, 0, 0, 0.749728, 24.315164, 80.21248)" y1="-106.988825" x2="66.046997" gradientUnits="userSpaceOnUse" y2="393.192776" id="b3df6e9e0d"><stop stop-opacity="1" stop-color="rgb(12.548828%, 0%, 0%)" offset="0"/><stop stop-opacity="1" stop-color="rgb(12.548828%, 0%, 0%)" offset="0.125"/><stop stop-opacity="1" stop-color="rgb(12.548828%, 0%, 0%)" offset="0.1875"/><stop stop-opacity="1" stop-color="rgb(12.548828%, 0%, 0%)" offset="0.21875"/><stop stop-opacity="1" stop-color="rgb(12.548828%, 0%, 0%)" offset="0.226563"/><stop stop-opacity="1" stop-color="rgb(12.956238%, 0.088501%, 0.088501%)" offset="0.230469"/><stop stop-opacity="1" stop-color="rgb(13.365173%, 0.177002%, 0.177002%)" offset="0.234375"/><stop stop-opacity="1" stop-color="rgb(14.077759%, 0.332642%, 0.332642%)" offset="0.238281"/><stop stop-opacity="1" stop-color="rgb(14.790344%, 0.488281%, 0.488281%)" offset="0.242188"/><stop stop-opacity="1" stop-color="rgb(15.501404%, 0.643921%, 0.643921%)" offset="0.246094"/><stop stop-opacity="1" stop-color="rgb(16.213989%, 0.799561%, 0.799561%)" offset="0.25"/><stop stop-opacity="1" stop-color="rgb(16.925049%, 0.953674%, 0.953674%)" offset="0.253906"/><stop stop-opacity="1" stop-color="rgb(17.637634%, 1.109314%, 1.109314%)" offset="0.257813"/><stop stop-opacity="1" stop-color="rgb(18.348694%, 1.264954%, 1.264954%)" offset="0.261719"/><stop stop-opacity="1" stop-color="rgb(19.061279%, 1.420593%, 1.420593%)" offset="0.265625"/><stop stop-opacity="1" stop-color="rgb(19.772339%, 1.576233%, 1.576233%)" offset="0.269531"/><stop stop-opacity="1" stop-color="rgb(20.484924%, 1.731873%, 1.731873%)" offset="0.273438"/><stop stop-opacity="1" stop-color="rgb(21.195984%, 1.885986%, 1.885986%)" offset="0.277344"/><stop stop-opacity="1" stop-color="rgb(21.908569%, 2.041626%, 2.041626%)" offset="0.28125"/><stop stop-opacity="1" stop-color="rgb(22.621155%, 2.197266%, 2.197266%)" offset="0.285156"/><stop stop-opacity="1" stop-color="rgb(23.33374%, 2.352905%, 2.352905%)" offset="0.289062"/><stop stop-opacity="1" stop-color="rgb(24.0448%, 2.508545%, 2.508545%)" offset="0.292969"/><stop stop-opacity="1" stop-color="rgb(24.757385%, 2.664185%, 2.664185%)" offset="0.296875"/><stop stop-opacity="1" stop-color="rgb(25.468445%, 2.818298%, 2.818298%)" offset="0.300781"/><stop stop-opacity="1" stop-color="rgb(26.18103%, 2.973938%, 2.973938%)" offset="0.304688"/><stop stop-opacity="1" stop-color="rgb(26.89209%, 3.129578%, 3.129578%)" offset="0.308594"/><stop stop-opacity="1" stop-color="rgb(27.604675%, 3.285217%, 3.285217%)" offset="0.3125"/><stop stop-opacity="1" stop-color="rgb(28.315735%, 3.440857%, 3.440857%)" offset="0.316406"/><stop stop-opacity="1" stop-color="rgb(29.02832%, 3.596497%, 3.596497%)" offset="0.320312"/><stop stop-opacity="1" stop-color="rgb(29.740906%, 3.75061%, 3.75061%)" offset="0.324219"/><stop stop-opacity="1" stop-color="rgb(30.453491%, 3.90625%, 3.90625%)" offset="0.328125"/><stop stop-opacity="1" stop-color="rgb(31.164551%, 4.06189%, 4.06189%)" offset="0.332031"/><stop stop-opacity="1" stop-color="rgb(31.877136%, 4.217529%, 4.217529%)" offset="0.335938"/><stop stop-opacity="1" stop-color="rgb(32.588196%, 4.373169%, 4.373169%)" offset="0.339844"/><stop stop-opacity="1" stop-color="rgb(33.300781%, 4.528809%, 4.528809%)" offset="0.34375"/><stop stop-opacity="1" stop-color="rgb(34.011841%, 4.682922%, 4.682922%)" offset="0.347656"/><stop stop-opacity="1" stop-color="rgb(34.724426%, 4.838562%, 4.838562%)" offset="0.351563"/><stop stop-opacity="1" stop-color="rgb(35.435486%, 4.994202%, 4.994202%)" offset="0.355469"/><stop stop-opacity="1" stop-color="rgb(36.148071%, 5.149841%, 5.149841%)" offset="0.359375"/><stop stop-opacity="1" stop-color="rgb(36.859131%, 5.305481%, 5.305481%)" offset="0.363281"/><stop stop-opacity="1" stop-color="rgb(37.571716%, 5.461121%, 5.461121%)" offset="0.367188"/><stop stop-opacity="1" stop-color="rgb(38.284302%, 5.615234%, 5.615234%)" offset="0.371094"/><stop stop-opacity="1" stop-color="rgb(38.996887%, 5.770874%, 5.770874%)" offset="0.375"/><stop stop-opacity="1" stop-color="rgb(39.707947%, 5.926514%, 5.926514%)" offset="0.378906"/><stop stop-opacity="1" stop-color="rgb(40.420532%, 6.082153%, 6.082153%)" offset="0.382813"/><stop stop-opacity="1" stop-color="rgb(41.131592%, 6.237793%, 6.237793%)" offset="0.386719"/><stop stop-opacity="1" stop-color="rgb(41.844177%, 6.393433%, 6.393433%)" offset="0.390625"/><stop stop-opacity="1" stop-color="rgb(42.555237%, 6.547546%, 6.547546%)" offset="0.394531"/><stop stop-opacity="1" stop-color="rgb(43.267822%, 6.703186%, 6.703186%)" offset="0.398438"/><stop stop-opacity="1" stop-color="rgb(43.978882%, 6.858826%, 6.858826%)" offset="0.402344"/><stop stop-opacity="1" stop-color="rgb(44.691467%, 7.014465%, 7.014465%)" offset="0.40625"/><stop stop-opacity="1" stop-color="rgb(45.402527%, 7.170105%, 7.170105%)" offset="0.410156"/><stop stop-opacity="1" stop-color="rgb(46.115112%, 7.325745%, 7.325745%)" offset="0.414063"/><stop stop-opacity="1" stop-color="rgb(46.827698%, 7.479858%, 7.479858%)" offset="0.417969"/><stop stop-opacity="1" stop-color="rgb(47.540283%, 7.635498%, 7.635498%)" offset="0.421875"/><stop stop-opacity="1" stop-color="rgb(48.251343%, 7.791138%, 7.791138%)" offset="0.425781"/><stop stop-opacity="1" stop-color="rgb(48.963928%, 7.946777%, 7.946777%)" offset="0.429688"/><stop stop-opacity="1" stop-color="rgb(49.674988%, 8.102417%, 8.102417%)" offset="0.433594"/><stop stop-opacity="1" stop-color="rgb(50.387573%, 8.258057%, 8.258057%)" offset="0.4375"/><stop stop-opacity="1" stop-color="rgb(51.098633%, 8.41217%, 8.41217%)" offset="0.441406"/><stop stop-opacity="1" stop-color="rgb(51.811218%, 8.56781%, 8.56781%)" offset="0.445312"/><stop stop-opacity="1" stop-color="rgb(52.522278%, 8.72345%, 8.72345%)" offset="0.449219"/><stop stop-opacity="1" stop-color="rgb(53.234863%, 8.879089%, 8.879089%)" offset="0.453125"/><stop stop-opacity="1" stop-color="rgb(53.945923%, 9.034729%, 9.034729%)" offset="0.457031"/><stop stop-opacity="1" stop-color="rgb(54.658508%, 9.190369%, 9.190369%)" offset="0.460938"/><stop stop-opacity="1" stop-color="rgb(55.371094%, 9.344482%, 9.344482%)" offset="0.464844"/><stop stop-opacity="1" stop-color="rgb(56.083679%, 9.500122%, 9.500122%)" offset="0.46875"/><stop stop-opacity="1" stop-color="rgb(56.794739%, 9.655762%, 9.655762%)" offset="0.472656"/><stop stop-opacity="1" stop-color="rgb(57.507324%, 9.811401%, 9.811401%)" offset="0.476563"/><stop stop-opacity="1" stop-color="rgb(58.218384%, 9.967041%, 9.967041%)" offset="0.480469"/><stop stop-opacity="1" stop-color="rgb(58.930969%, 10.122681%, 10.122681%)" offset="0.484375"/><stop stop-opacity="1" stop-color="rgb(59.642029%, 10.276794%, 10.276794%)" offset="0.488281"/><stop stop-opacity="1" stop-color="rgb(60.354614%, 10.432434%, 10.432434%)" offset="0.492188"/><stop stop-opacity="1" stop-color="rgb(61.065674%, 10.588074%, 10.588074%)" offset="0.496094"/><stop stop-opacity="1" stop-color="rgb(61.778259%, 10.743713%, 10.743713%)" offset="0.5"/><stop stop-opacity="1" stop-color="rgb(62.489319%, 10.899353%, 10.899353%)" offset="0.503906"/><stop stop-opacity="1" stop-color="rgb(63.201904%, 11.054993%, 11.054993%)" offset="0.507812"/><stop stop-opacity="1" stop-color="rgb(63.91449%, 11.209106%, 11.209106%)" offset="0.511719"/><stop stop-opacity="1" stop-color="rgb(64.627075%, 11.364746%, 11.364746%)" offset="0.515625"/><stop stop-opacity="1" stop-color="rgb(65.338135%, 11.520386%, 11.520386%)" offset="0.519531"/><stop stop-opacity="1" stop-color="rgb(66.05072%, 11.676025%, 11.676025%)" offset="0.523438"/><stop stop-opacity="1" stop-color="rgb(66.76178%, 11.831665%, 11.831665%)" offset="0.527344"/><stop stop-opacity="1" stop-color="rgb(67.474365%, 11.987305%, 11.987305%)" offset="0.53125"/><stop stop-opacity="1" stop-color="rgb(68.185425%, 12.141418%, 12.141418%)" offset="0.535156"/><stop stop-opacity="1" stop-color="rgb(68.89801%, 12.297058%, 12.297058%)" offset="0.539062"/><stop stop-opacity="1" stop-color="rgb(69.60907%, 12.452698%, 12.452698%)" offset="0.542969"/><stop stop-opacity="1" stop-color="rgb(70.321655%, 12.608337%, 12.608337%)" offset="0.546875"/><stop stop-opacity="1" stop-color="rgb(71.032715%, 12.763977%, 12.763977%)" offset="0.550781"/><stop stop-opacity="1" stop-color="rgb(71.7453%, 12.919617%, 12.919617%)" offset="0.554688"/><stop stop-opacity="1" stop-color="rgb(72.457886%, 13.07373%, 13.07373%)" offset="0.558594"/><stop stop-opacity="1" stop-color="rgb(73.170471%, 13.22937%, 13.22937%)" offset="0.5625"/><stop stop-opacity="1" stop-color="rgb(73.881531%, 13.38501%, 13.38501%)" offset="0.566406"/><stop stop-opacity="1" stop-color="rgb(74.594116%, 13.540649%, 13.540649%)" offset="0.570312"/><stop stop-opacity="1" stop-color="rgb(75.305176%, 13.696289%, 13.696289%)" offset="0.574219"/><stop stop-opacity="1" stop-color="rgb(76.017761%, 13.851929%, 13.851929%)" offset="0.578125"/><stop stop-opacity="1" stop-color="rgb(76.728821%, 14.006042%, 14.006042%)" offset="0.582031"/><stop stop-opacity="1" stop-color="rgb(77.441406%, 14.161682%, 14.161682%)" offset="0.585938"/><stop stop-opacity="1" stop-color="rgb(78.152466%, 14.317322%, 14.317322%)" offset="0.589844"/><stop stop-opacity="1" stop-color="rgb(78.865051%, 14.472961%, 14.472961%)" offset="0.59375"/><stop stop-opacity="1" stop-color="rgb(79.576111%, 14.628601%, 14.628601%)" offset="0.597656"/><stop stop-opacity="1" stop-color="rgb(80.288696%, 14.784241%, 14.784241%)" offset="0.601562"/><stop stop-opacity="1" stop-color="rgb(81.001282%, 14.938354%, 14.938354%)" offset="0.605469"/><stop stop-opacity="1" stop-color="rgb(81.713867%, 15.093994%, 15.093994%)" offset="0.609375"/><stop stop-opacity="1" stop-color="rgb(82.424927%, 15.249634%, 15.249634%)" offset="0.613281"/><stop stop-opacity="1" stop-color="rgb(83.137512%, 15.405273%, 15.405273%)" offset="0.617188"/><stop stop-opacity="1" stop-color="rgb(83.848572%, 15.560913%, 15.560913%)" offset="0.621094"/><stop stop-opacity="1" stop-color="rgb(84.561157%, 15.716553%, 15.716553%)" offset="0.625"/><stop stop-opacity="1" stop-color="rgb(85.272217%, 15.870667%, 15.870667%)" offset="0.628906"/><stop stop-opacity="1" stop-color="rgb(85.984802%, 16.026306%, 16.026306%)" offset="0.632812"/><stop stop-opacity="1" stop-color="rgb(86.695862%, 16.181946%, 16.181946%)" offset="0.636719"/><stop stop-opacity="1" stop-color="rgb(87.408447%, 16.337585%, 16.337585%)" offset="0.640625"/><stop stop-opacity="1" stop-color="rgb(88.119507%, 16.493225%, 16.493225%)" offset="0.644531"/><stop stop-opacity="1" stop-color="rgb(88.832092%, 16.648865%, 16.648865%)" offset="0.648438"/><stop stop-opacity="1" stop-color="rgb(89.315796%, 16.75415%, 16.75415%)" offset="0.652344"/><stop stop-opacity="1" stop-color="rgb(89.7995%, 16.859436%, 16.859436%)" offset="0.65625"/><stop stop-opacity="1" stop-color="rgb(89.7995%, 16.859436%, 16.859436%)" offset="0.6875"/><stop stop-opacity="1" stop-color="rgb(89.7995%, 16.859436%, 16.859436%)" offset="0.75"/><stop stop-opacity="1" stop-color="rgb(89.7995%, 16.859436%, 16.859436%)" offset="1"/></linearGradient><clipPath id="da288aeaba"><rect x="0" width="375" y="0" height="375"/></clipPath><clipPath id="213a667ac2"><rect x="0" width="375" y="0" height="375"/></clipPath><clipPath id="6161022c4a"><rect x="0" width="375" y="0" height="375"/></clipPath><mask id="48f6c5899e"><g filter="url(#1a63ee951e)"><g transform="matrix(1, 0, 0, 1, 0, 0)"><g clip-path="url(#6161022c4a)"><g transform="matrix(1, 0, 0, 1, 0, 0)"><g clip-path="url(#213a667ac2)"><g fill="#000000" fill-opacity="1"><g transform="translate(24.012908, 210.68144)"><g><path d="M 3.546875 0 L 34.367188 0 C 35.46875 0 36.445312 -0.976562 36.445312 -2.078125 L 36.445312 -9.539062 C 36.445312 -10.640625 37.425781 -11.617188 38.523438 -11.617188 L 45.984375 -11.617188 C 47.085938 -11.617188 48.066406 -12.597656 48.066406 -13.699219 L 48.066406 -44.519531 C 48.066406 -45.617188 47.085938 -46.597656 45.984375 -46.597656 L 38.523438 -46.597656 C 37.425781 -46.597656 36.445312 -47.574219 36.445312 -48.675781 L 36.445312 -56.136719 C 36.445312 -57.238281 35.46875 -58.214844 34.367188 -58.214844 L 3.546875 -58.214844 C 2.445312 -58.214844 1.46875 -57.238281 1.46875 -56.136719 L 1.46875 -48.675781 C 1.46875 -47.574219 2.445312 -46.597656 3.546875 -46.597656 L 34.367188 -46.597656 C 35.46875 -46.597656 36.445312 -45.617188 36.445312 -44.519531 L 36.445312 -37.058594 C 36.445312 -35.957031 35.46875 -34.980469 34.367188 -34.980469 L 15.164062 -34.980469 C 14.066406 -34.980469 13.085938 -34 13.085938 -32.898438 L 13.085938 -25.316406 C 13.085938 -24.214844 14.066406 -23.238281 15.164062 -23.238281 L 34.367188 -23.238281 C 35.46875 -23.238281 36.445312 -22.257812 36.445312 -21.160156 L 36.445312 -13.699219 C 36.445312 -12.597656 35.46875 -11.617188 34.367188 -11.617188 L 3.546875 -11.617188 C 2.445312 -11.617188 1.46875 -10.640625 1.46875 -9.539062 L 1.46875 -2.078125 C 1.46875 -0.976562 2.445312 0 3.546875 0 Z M 3.546875 0 "/></g></g></g><g fill="#000000" fill-opacity="1"><g transform="translate(73.543163, 210.68144)"><g><path d="M 15.164062 0 L 45.984375 0 C 47.085938 0 48.066406 -0.976562 48.066406 -2.078125 L 48.066406 -9.539062 C 48.066406 -10.640625 47.085938 -11.617188 45.984375 -11.617188 L 15.164062 -11.617188 C 14.066406 -11.617188 13.085938 -12.597656 13.085938 -13.699219 L 13.085938 -21.160156 C 13.085938 -22.257812 14.066406 -23.238281 15.164062 -23.238281 L 45.984375 -23.238281 C 47.085938 -23.238281 48.066406 -24.214844 48.066406 -25.316406 L 48.066406 -44.519531 C 48.066406 -45.617188 47.085938 -46.597656 45.984375 -46.597656 L 38.523438 -46.597656 C 37.425781 -46.597656 36.445312 -47.574219 36.445312 -48.675781 L 36.445312 -56.136719 C 36.445312 -57.238281 35.46875 -58.214844 34.367188 -58.214844 L 15.164062 -58.214844 C 14.066406 -58.214844 13.085938 -57.238281 13.085938 -56.136719 L 13.085938 -48.675781 C 13.085938 -47.574219 12.109375 -46.597656 11.007812 -46.597656 L 3.546875 -46.597656 C 2.445312 -46.597656 1.46875 -45.617188 1.46875 -44.519531 L 1.46875 -13.699219 C 1.46875 -12.597656 2.445312 -11.617188 3.546875 -11.617188 L 11.007812 -11.617188 C 12.109375 -11.617188 13.085938 -10.640625 13.085938 -9.539062 L 13.085938 -2.078125 C 13.085938 -0.976562 14.066406 0 15.164062 0 Z M 13.085938 -37.058594 L 13.085938 -44.519531 C 13.085938 -45.617188 14.066406 -46.597656 15.164062 -46.597656 L 34.367188 -46.597656 C 35.46875 -46.597656 36.445312 -45.617188 36.445312 -44.519531 L 36.445312 -37.058594 C 36.445312 -35.957031 35.46875 -34.980469 34.367188 -34.980469 L 15.164062 -34.980469 C 14.066406 -34.980469 13.085938 -35.957031 13.085938 -37.058594 Z M 13.085938 -37.058594 "/></g></g></g></g></g></g></g></g></mask><clipPath id="5588c80534"><path d="M 0 0 L 368.261719 0 L 368.261719 375 L 0 375 Z M 0 0 " clip-rule="nonzero"/></clipPath><clipPath id="fe7d0ffc86"><rect x="0" width="375" y="0" height="375"/></clipPath><clipPath id="ada73cfd1a"><rect x="0" width="375" y="0" height="375"/></clipPath><clipPath id="369a5d4cde"><path d="M 0 0 L 375 0 L 375 375 L 0 375 Z M 0 0 " clip-rule="nonzero"/></clipPath><linearGradient x1="283.586" gradientTransform="matrix(0.749766, 0, 0, 0.749729, 24.014739, 80.212291)" y1="-106.988353" x2="283.586" gradientUnits="userSpaceOnUse" y2="393.192224" id="4741025150"><stop stop-opacity="1" stop-color="rgb(14.118958%, 14.118958%, 14.118958%)" offset="0"/><stop stop-opacity="1" stop-color="rgb(14.118958%, 14.118958%, 14.118958%)" offset="0.125"/><stop stop-opacity="1" stop-color="rgb(14.118958%, 14.118958%, 14.118958%)" offset="0.1875"/><stop stop-opacity="1" stop-color="rgb(14.118958%, 14.118958%, 14.118958%)" offset="0.21875"/><stop stop-opacity="1" stop-color="rgb(14.118958%, 14.118958%, 14.118958%)" offset="0.226563"/><stop stop-opacity="1" stop-color="rgb(14.447021%, 14.447021%, 14.447021%)" offset="0.230469"/><stop stop-opacity="1" stop-color="rgb(14.775085%, 14.775085%, 14.775085%)" offset="0.234375"/><stop stop-opacity="1" stop-color="rgb(15.345764%, 15.345764%, 15.345764%)" offset="0.238281"/><stop stop-opacity="1" stop-color="rgb(15.916443%, 15.916443%, 15.916443%)" offset="0.242188"/><stop stop-opacity="1" stop-color="rgb(16.487122%, 16.487122%, 16.487122%)" offset="0.246094"/><stop stop-opacity="1" stop-color="rgb(17.0578%, 17.0578%, 17.0578%)" offset="0.25"/><stop stop-opacity="1" stop-color="rgb(17.628479%, 17.628479%, 17.628479%)" offset="0.253906"/><stop stop-opacity="1" stop-color="rgb(18.200684%, 18.200684%, 18.200684%)" offset="0.257812"/><stop stop-opacity="1" stop-color="rgb(18.771362%, 18.771362%, 18.771362%)" offset="0.261719"/><stop stop-opacity="1" stop-color="rgb(19.342041%, 19.342041%, 19.342041%)" offset="0.265625"/><stop stop-opacity="1" stop-color="rgb(19.91272%, 19.91272%, 19.91272%)" offset="0.269531"/><stop stop-opacity="1" stop-color="rgb(20.484924%, 20.484924%, 20.484924%)" offset="0.273438"/><stop stop-opacity="1" stop-color="rgb(21.055603%, 21.055603%, 21.055603%)" offset="0.277344"/><stop stop-opacity="1" stop-color="rgb(21.626282%, 21.626282%, 21.626282%)" offset="0.28125"/><stop stop-opacity="1" stop-color="rgb(22.19696%, 22.19696%, 22.19696%)" offset="0.285156"/><stop stop-opacity="1" stop-color="rgb(22.769165%, 22.769165%, 22.769165%)" offset="0.289062"/><stop stop-opacity="1" stop-color="rgb(23.339844%, 23.339844%, 23.339844%)" offset="0.292969"/><stop stop-opacity="1" stop-color="rgb(23.910522%, 23.910522%, 23.910522%)" offset="0.296875"/><stop stop-opacity="1" stop-color="rgb(24.481201%, 24.481201%, 24.481201%)" offset="0.300781"/><stop stop-opacity="1" stop-color="rgb(25.053406%, 25.053406%, 25.053406%)" offset="0.304688"/><stop stop-opacity="1" stop-color="rgb(25.624084%, 25.624084%, 25.624084%)" offset="0.308594"/><stop stop-opacity="1" stop-color="rgb(26.194763%, 26.194763%, 26.194763%)" offset="0.3125"/><stop stop-opacity="1" stop-color="rgb(26.765442%, 26.765442%, 26.765442%)" offset="0.316406"/><stop stop-opacity="1" stop-color="rgb(27.337646%, 27.337646%, 27.337646%)" offset="0.320313"/><stop stop-opacity="1" stop-color="rgb(27.908325%, 27.908325%, 27.908325%)" offset="0.324219"/><stop stop-opacity="1" stop-color="rgb(28.479004%, 28.479004%, 28.479004%)" offset="0.328125"/><stop stop-opacity="1" stop-color="rgb(29.049683%, 29.049683%, 29.049683%)" offset="0.332031"/><stop stop-opacity="1" stop-color="rgb(29.621887%, 29.621887%, 29.621887%)" offset="0.335938"/><stop stop-opacity="1" stop-color="rgb(30.192566%, 30.192566%, 30.192566%)" offset="0.339844"/><stop stop-opacity="1" stop-color="rgb(30.763245%, 30.763245%, 30.763245%)" offset="0.34375"/><stop stop-opacity="1" stop-color="rgb(31.333923%, 31.333923%, 31.333923%)" offset="0.347656"/><stop stop-opacity="1" stop-color="rgb(31.906128%, 31.906128%, 31.906128%)" offset="0.351563"/><stop stop-opacity="1" stop-color="rgb(32.476807%, 32.476807%, 32.476807%)" offset="0.355469"/><stop stop-opacity="1" stop-color="rgb(33.047485%, 33.047485%, 33.047485%)" offset="0.359375"/><stop stop-opacity="1" stop-color="rgb(33.618164%, 33.618164%, 33.618164%)" offset="0.363281"/><stop stop-opacity="1" stop-color="rgb(34.188843%, 34.188843%, 34.188843%)" offset="0.367188"/><stop stop-opacity="1" stop-color="rgb(34.759521%, 34.759521%, 34.759521%)" offset="0.371094"/><stop stop-opacity="1" stop-color="rgb(35.331726%, 35.331726%, 35.331726%)" offset="0.375"/><stop stop-opacity="1" stop-color="rgb(35.902405%, 35.902405%, 35.902405%)" offset="0.378906"/><stop stop-opacity="1" stop-color="rgb(36.473083%, 36.473083%, 36.473083%)" offset="0.382813"/><stop stop-opacity="1" stop-color="rgb(37.043762%, 37.043762%, 37.043762%)" offset="0.386719"/><stop stop-opacity="1" stop-color="rgb(37.615967%, 37.615967%, 37.615967%)" offset="0.390625"/><stop stop-opacity="1" stop-color="rgb(38.186646%, 38.186646%, 38.186646%)" offset="0.394531"/><stop stop-opacity="1" stop-color="rgb(38.757324%, 38.757324%, 38.757324%)" offset="0.398438"/><stop stop-opacity="1" stop-color="rgb(39.328003%, 39.328003%, 39.328003%)" offset="0.402344"/><stop stop-opacity="1" stop-color="rgb(39.900208%, 39.900208%, 39.900208%)" offset="0.40625"/><stop stop-opacity="1" stop-color="rgb(40.470886%, 40.470886%, 40.470886%)" offset="0.410156"/><stop stop-opacity="1" stop-color="rgb(41.041565%, 41.041565%, 41.041565%)" offset="0.414063"/><stop stop-opacity="1" stop-color="rgb(41.612244%, 41.612244%, 41.612244%)" offset="0.417969"/><stop stop-opacity="1" stop-color="rgb(42.184448%, 42.184448%, 42.184448%)" offset="0.421875"/><stop stop-opacity="1" stop-color="rgb(42.755127%, 42.755127%, 42.755127%)" offset="0.425781"/><stop stop-opacity="1" stop-color="rgb(43.325806%, 43.325806%, 43.325806%)" offset="0.429688"/><stop stop-opacity="1" stop-color="rgb(43.896484%, 43.896484%, 43.896484%)" offset="0.433594"/><stop stop-opacity="1" stop-color="rgb(44.468689%, 44.468689%, 44.468689%)" offset="0.4375"/><stop stop-opacity="1" stop-color="rgb(45.039368%, 45.039368%, 45.039368%)" offset="0.441406"/><stop stop-opacity="1" stop-color="rgb(45.610046%, 45.610046%, 45.610046%)" offset="0.445313"/><stop stop-opacity="1" stop-color="rgb(46.180725%, 46.180725%, 46.180725%)" offset="0.449219"/><stop stop-opacity="1" stop-color="rgb(46.75293%, 46.75293%, 46.75293%)" offset="0.453125"/><stop stop-opacity="1" stop-color="rgb(47.323608%, 47.323608%, 47.323608%)" offset="0.457031"/><stop stop-opacity="1" stop-color="rgb(47.894287%, 47.894287%, 47.894287%)" offset="0.460938"/><stop stop-opacity="1" stop-color="rgb(48.464966%, 48.464966%, 48.464966%)" offset="0.464844"/><stop stop-opacity="1" stop-color="rgb(49.03717%, 49.03717%, 49.03717%)" offset="0.46875"/><stop stop-opacity="1" stop-color="rgb(49.607849%, 49.607849%, 49.607849%)" offset="0.472656"/><stop stop-opacity="1" stop-color="rgb(50.178528%, 50.178528%, 50.178528%)" offset="0.476563"/><stop stop-opacity="1" stop-color="rgb(50.749207%, 50.749207%, 50.749207%)" offset="0.480469"/><stop stop-opacity="1" stop-color="rgb(51.319885%, 51.319885%, 51.319885%)" offset="0.484375"/><stop stop-opacity="1" stop-color="rgb(51.890564%, 51.890564%, 51.890564%)" offset="0.488281"/><stop stop-opacity="1" stop-color="rgb(52.462769%, 52.462769%, 52.462769%)" offset="0.492188"/><stop stop-opacity="1" stop-color="rgb(53.033447%, 53.033447%, 53.033447%)" offset="0.496094"/><stop stop-opacity="1" stop-color="rgb(53.604126%, 53.604126%, 53.604126%)" offset="0.5"/><stop stop-opacity="1" stop-color="rgb(54.174805%, 54.174805%, 54.174805%)" offset="0.503906"/><stop stop-opacity="1" stop-color="rgb(54.747009%, 54.747009%, 54.747009%)" offset="0.507812"/><stop stop-opacity="1" stop-color="rgb(55.317688%, 55.317688%, 55.317688%)" offset="0.511719"/><stop stop-opacity="1" stop-color="rgb(55.888367%, 55.888367%, 55.888367%)" offset="0.515625"/><stop stop-opacity="1" stop-color="rgb(56.459045%, 56.459045%, 56.459045%)" offset="0.519531"/><stop stop-opacity="1" stop-color="rgb(57.03125%, 57.03125%, 57.03125%)" offset="0.523438"/><stop stop-opacity="1" stop-color="rgb(57.601929%, 57.601929%, 57.601929%)" offset="0.527344"/><stop stop-opacity="1" stop-color="rgb(58.172607%, 58.172607%, 58.172607%)" offset="0.53125"/><stop stop-opacity="1" stop-color="rgb(58.743286%, 58.743286%, 58.743286%)" offset="0.535156"/><stop stop-opacity="1" stop-color="rgb(59.315491%, 59.315491%, 59.315491%)" offset="0.539063"/><stop stop-opacity="1" stop-color="rgb(59.886169%, 59.886169%, 59.886169%)" offset="0.542969"/><stop stop-opacity="1" stop-color="rgb(60.456848%, 60.456848%, 60.456848%)" offset="0.546875"/><stop stop-opacity="1" stop-color="rgb(61.027527%, 61.027527%, 61.027527%)" offset="0.550781"/><stop stop-opacity="1" stop-color="rgb(61.599731%, 61.599731%, 61.599731%)" offset="0.554688"/><stop stop-opacity="1" stop-color="rgb(62.17041%, 62.17041%, 62.17041%)" offset="0.558594"/><stop stop-opacity="1" stop-color="rgb(62.741089%, 62.741089%, 62.741089%)" offset="0.5625"/><stop stop-opacity="1" stop-color="rgb(63.311768%, 63.311768%, 63.311768%)" offset="0.566406"/><stop stop-opacity="1" stop-color="rgb(63.883972%, 63.883972%, 63.883972%)" offset="0.570312"/><stop stop-opacity="1" stop-color="rgb(64.454651%, 64.454651%, 64.454651%)" offset="0.574219"/><stop stop-opacity="1" stop-color="rgb(65.02533%, 65.02533%, 65.02533%)" offset="0.578125"/><stop stop-opacity="1" stop-color="rgb(65.596008%, 65.596008%, 65.596008%)" offset="0.582031"/><stop stop-opacity="1" stop-color="rgb(66.168213%, 66.168213%, 66.168213%)" offset="0.585938"/><stop stop-opacity="1" stop-color="rgb(66.738892%, 66.738892%, 66.738892%)" offset="0.589844"/><stop stop-opacity="1" stop-color="rgb(67.30957%, 67.30957%, 67.30957%)" offset="0.59375"/><stop stop-opacity="1" stop-color="rgb(67.880249%, 67.880249%, 67.880249%)" offset="0.597656"/><stop stop-opacity="1" stop-color="rgb(68.450928%, 68.450928%, 68.450928%)" offset="0.601563"/><stop stop-opacity="1" stop-color="rgb(69.021606%, 69.021606%, 69.021606%)" offset="0.605469"/><stop stop-opacity="1" stop-color="rgb(69.593811%, 69.593811%, 69.593811%)" offset="0.609375"/><stop stop-opacity="1" stop-color="rgb(70.16449%, 70.16449%, 70.16449%)" offset="0.613281"/><stop stop-opacity="1" stop-color="rgb(70.735168%, 70.735168%, 70.735168%)" offset="0.617188"/><stop stop-opacity="1" stop-color="rgb(71.305847%, 71.305847%, 71.305847%)" offset="0.621094"/><stop stop-opacity="1" stop-color="rgb(71.878052%, 71.878052%, 71.878052%)" offset="0.625"/><stop stop-opacity="1" stop-color="rgb(72.44873%, 72.44873%, 72.44873%)" offset="0.628906"/><stop stop-opacity="1" stop-color="rgb(73.019409%, 73.019409%, 73.019409%)" offset="0.632812"/><stop stop-opacity="1" stop-color="rgb(73.590088%, 73.590088%, 73.590088%)" offset="0.636719"/><stop stop-opacity="1" stop-color="rgb(74.162292%, 74.162292%, 74.162292%)" offset="0.640625"/><stop stop-opacity="1" stop-color="rgb(74.732971%, 74.732971%, 74.732971%)" offset="0.644531"/><stop stop-opacity="1" stop-color="rgb(75.30365%, 75.30365%, 75.30365%)" offset="0.648438"/><stop stop-opacity="1" stop-color="rgb(75.691223%, 75.691223%, 75.691223%)" offset="0.652344"/><stop stop-opacity="1" stop-color="rgb(76.078796%, 76.078796%, 76.078796%)" offset="0.65625"/><stop stop-opacity="1" stop-color="rgb(76.078796%, 76.078796%, 76.078796%)" offset="0.6875"/><stop stop-opacity="1" stop-color="rgb(76.078796%, 76.078796%, 76.078796%)" offset="0.75"/><stop stop-opacity="1" stop-color="rgb(76.078796%, 76.078796%, 76.078796%)" offset="1"/></linearGradient><clipPath id="96373e9d0d"><rect x="0" width="375" y="0" height="375"/></clipPath><clipPath id="03745ebd64"><rect x="0" width="375" y="0" height="375"/></clipPath><clipPath id="090755eb2e"><rect x="0" width="375" y="0" height="375"/></clipPath><mask id="00a088ae94"><g filter="url(#1a63ee951e)"><g transform="matrix(1, 0, 0, 1, 0, 0)"><g clip-path="url(#090755eb2e)"><g transform="matrix(1, 0, 0, 1, 0, 0)"><g clip-path="url(#03745ebd64)"><g fill="#000000" fill-opacity="1"><g transform="translate(123.083214, 210.68144)"><g><path d="M 3.546875 23.238281 L 11.007812 23.238281 C 12.109375 23.238281 13.085938 22.257812 13.085938 21.160156 L 13.085938 2.078125 C 13.085938 0.976562 14.066406 0 15.164062 0 L 34.367188 0 C 35.46875 0 36.445312 -0.976562 36.445312 -2.078125 L 36.445312 -9.539062 C 36.445312 -10.640625 37.425781 -11.617188 38.523438 -11.617188 L 45.984375 -11.617188 C 47.085938 -11.617188 48.066406 -12.597656 48.066406 -13.699219 L 48.066406 -44.519531 C 48.066406 -45.617188 47.085938 -46.597656 45.984375 -46.597656 L 38.523438 -46.597656 C 37.425781 -46.597656 36.445312 -47.574219 36.445312 -48.675781 L 36.445312 -56.136719 C 36.445312 -57.238281 35.46875 -58.214844 34.367188 -58.214844 L 15.164062 -58.214844 C 14.066406 -58.214844 13.085938 -57.238281 13.085938 -56.136719 L 13.085938 -48.675781 C 13.085938 -47.574219 12.109375 -46.597656 11.007812 -46.597656 L 3.546875 -46.597656 C 2.445312 -46.597656 1.46875 -45.617188 1.46875 -44.519531 L 1.46875 21.160156 C 1.46875 22.257812 2.445312 23.238281 3.546875 23.238281 Z M 13.085938 -13.699219 L 13.085938 -44.519531 C 13.085938 -45.617188 14.066406 -46.597656 15.164062 -46.597656 L 34.367188 -46.597656 C 35.46875 -46.597656 36.445312 -45.617188 36.445312 -44.519531 L 36.445312 -13.699219 C 36.445312 -12.597656 35.46875 -11.617188 34.367188 -11.617188 L 15.164062 -11.617188 C 14.066406 -11.617188 13.085938 -12.597656 13.085938 -13.699219 Z M 13.085938 -13.699219 "/></g></g></g><g fill="#000000" fill-opacity="1"><g transform="translate(172.613469, 210.68144)"><g><path d="M 3.546875 0 L 34.367188 0 C 35.46875 0 36.445312 -0.976562 36.445312 -2.078125 L 36.445312 -9.539062 C 36.445312 -10.640625 37.425781 -11.617188 38.523438 -11.617188 L 45.984375 -11.617188 C 47.085938 -11.617188 48.066406 -12.597656 48.066406 -13.699219 L 48.066406 -32.898438 C 48.066406 -34 47.085938 -34.980469 45.984375 -34.980469 L 15.164062 -34.980469 C 14.066406 -34.980469 13.085938 -35.957031 13.085938 -37.058594 L 13.085938 -44.519531 C 13.085938 -45.617188 14.066406 -46.597656 15.164062 -46.597656 L 45.984375 -46.597656 C 47.085938 -46.597656 48.066406 -47.574219 48.066406 -48.675781 L 48.066406 -56.136719 C 48.066406 -57.238281 47.085938 -58.214844 45.984375 -58.214844 L 15.164062 -58.214844 C 14.066406 -58.214844 13.085938 -57.238281 13.085938 -56.136719 L 13.085938 -48.675781 C 13.085938 -47.574219 12.109375 -46.597656 11.007812 -46.597656 L 3.546875 -46.597656 C 2.445312 -46.597656 1.46875 -45.617188 1.46875 -44.519531 L 1.46875 -25.316406 C 1.46875 -24.214844 2.445312 -23.238281 3.546875 -23.238281 L 34.367188 -23.238281 C 35.46875 -23.238281 36.445312 -22.257812 36.445312 -21.160156 L 36.445312 -13.699219 C 36.445312 -12.597656 35.46875 -11.617188 34.367188 -11.617188 L 3.546875 -11.617188 C 2.445312 -11.617188 1.46875 -10.640625 1.46875 -9.539062 L 1.46875 -2.078125 C 1.46875 -0.976562 2.445312 0 3.546875 0 Z M 3.546875 0 "/></g></g></g><g fill="#000000" fill-opacity="1"><g transform="translate(222.143724, 210.68144)"><g><path d="M 3.546875 0 L 11.007812 0 C 12.109375 0 13.085938 -0.976562 13.085938 -2.078125 L 13.085938 -56.136719 C 13.085938 -57.238281 12.109375 -58.214844 11.007812 -58.214844 L 3.546875 -58.214844 C 2.445312 -58.214844 1.46875 -57.238281 1.46875 -56.136719 L 1.46875 -2.078125 C 1.46875 -0.976562 2.445312 0 3.546875 0 Z M 3.546875 -69.835938 L 11.007812 -69.835938 C 12.109375 -69.835938 13.085938 -70.8125 13.085938 -71.914062 L 13.085938 -79.496094 C 13.085938 -80.597656 12.109375 -81.574219 11.007812 -81.574219 L 3.546875 -81.574219 C 2.445312 -81.574219 1.46875 -80.597656 1.46875 -79.496094 L 1.46875 -71.914062 C 1.46875 -70.8125 2.445312 -69.835938 3.546875 -69.835938 Z M 3.546875 -69.835938 "/></g></g></g><g fill="#000000" fill-opacity="1"><g transform="translate(236.697059, 210.68144)"><g><path d="M 3.546875 0 L 11.007812 0 C 12.109375 0 13.085938 -0.976562 13.085938 -2.078125 L 13.085938 -79.496094 C 13.085938 -80.597656 12.109375 -81.574219 11.007812 -81.574219 L 3.546875 -81.574219 C 2.445312 -81.574219 1.46875 -80.597656 1.46875 -79.496094 L 1.46875 -2.078125 C 1.46875 -0.976562 2.445312 0 3.546875 0 Z M 3.546875 0 "/></g></g></g><g fill="#000000" fill-opacity="1"><g transform="translate(251.250395, 210.68144)"><g><path d="M 3.546875 -11.617188 L 11.007812 -11.617188 C 12.109375 -11.617188 13.085938 -10.640625 13.085938 -9.539062 L 13.085938 -2.078125 C 13.085938 -0.976562 14.066406 0 15.164062 0 L 34.367188 0 C 35.46875 0 36.445312 -0.976562 36.445312 -2.078125 L 36.445312 -9.539062 C 36.445312 -10.640625 37.425781 -11.617188 38.523438 -11.617188 L 45.984375 -11.617188 C 47.085938 -11.617188 48.066406 -12.597656 48.066406 -13.699219 L 48.066406 -44.519531 C 48.066406 -45.617188 47.085938 -46.597656 45.984375 -46.597656 L 38.523438 -46.597656 C 37.425781 -46.597656 36.445312 -47.574219 36.445312 -48.675781 L 36.445312 -56.136719 C 36.445312 -57.238281 35.46875 -58.214844 34.367188 -58.214844 L 15.164062 -58.214844 C 14.066406 -58.214844 13.085938 -57.238281 13.085938 -56.136719 L 13.085938 -48.675781 C 13.085938 -47.574219 12.109375 -46.597656 11.007812 -46.597656 L 3.546875 -46.597656 C 2.445312 -46.597656 1.46875 -45.617188 1.46875 -44.519531 L 1.46875 -13.699219 C 1.46875 -12.597656 2.445312 -11.617188 3.546875 -11.617188 Z M 13.085938 -13.699219 L 13.085938 -44.519531 C 13.085938 -45.617188 14.066406 -46.597656 15.164062 -46.597656 L 34.367188 -46.597656 C 35.46875 -46.597656 36.445312 -45.617188 36.445312 -44.519531 L 36.445312 -13.699219 C 36.445312 -12.597656 35.46875 -11.617188 34.367188 -11.617188 L 15.164062 -11.617188 C 14.066406 -11.617188 13.085938 -12.597656 13.085938 -13.699219 Z M 13.085938 -13.699219 "/></g></g></g><g fill="#000000" fill-opacity="1"><g transform="translate(300.78065, 210.68144)"><g><path d="M 3.546875 0 L 11.007812 0 C 12.109375 0 13.085938 -0.976562 13.085938 -2.078125 L 13.085938 -44.519531 C 13.085938 -45.617188 14.066406 -46.597656 15.164062 -46.597656 L 34.367188 -46.597656 C 35.46875 -46.597656 36.445312 -45.617188 36.445312 -44.519531 L 36.445312 -2.078125 C 36.445312 -0.976562 37.425781 0 38.523438 0 L 45.984375 0 C 47.085938 0 48.066406 -0.976562 48.066406 -2.078125 L 48.066406 -44.519531 C 48.066406 -45.617188 47.085938 -46.597656 45.984375 -46.597656 L 38.523438 -46.597656 C 37.425781 -46.597656 36.445312 -47.574219 36.445312 -48.675781 L 36.445312 -56.136719 C 36.445312 -57.238281 35.46875 -58.214844 34.367188 -58.214844 L 3.546875 -58.214844 C 2.445312 -58.214844 1.46875 -57.238281 1.46875 -56.136719 L 1.46875 -2.078125 C 1.46875 -0.976562 2.445312 0 3.546875 0 Z M 3.546875 0 "/></g></g></g></g></g></g></g></g></mask><clipPath id="15692dd723"><path d="M 0 0 L 375 0 L 375 375 L 0 375 Z M 0 0 " clip-rule="nonzero"/></clipPath><clipPath id="b763007a90"><rect x="0" width="375" y="0" height="375"/></clipPath><clipPath id="865c10147b"><rect x="0" width="375" y="0" height="375"/></clipPath></defs><g transform="matrix(1, 0, 0, 1, 0, 0)"><g clip-path="url(#ada73cfd1a)"><g mask="url(#48f6c5899e)"><g transform="matrix(1, 0, 0, 1, 0, 0)"><g clip-path="url(#fe7d0ffc86)"><g clip-path="url(#5588c80534)"><path fill="url(#b3df6e9e0d)" d="M 0 0 L 0 375 L 368.261719 375 L 368.261719 0 Z M 0 0 " fill-rule="nonzero"/></g></g></g></g></g></g><g transform="matrix(1, 0, 0, 1, 0, 0)"><g clip-path="url(#865c10147b)"><g mask="url(#00a088ae94)"><g transform="matrix(1, 0, 0, 1, 0, 0)"><g clip-path="url(#b763007a90)"><g clip-path="url(#15692dd723)"><rect x="-136.5" fill="url(#4741025150)" width="648" y="-136.499997" height="647.999984"/></g></g></g></g></g></g></svg>