<svg xmlns="http://www.w3.org/2000/svg" xmlns:xlink="http://www.w3.org/1999/xlink" width="100%" zoomAndPan="magnify" viewBox="66.88 64.22 237.76 237.76" height="100%" preserveAspectRatio="xMidYMid meet" version="1.0"><defs><filter x="0%" y="0%" width="100%" height="100%" id="e33119190c"><feColorMatrix values="0 0 0 0 1 0 0 0 0 1 0 0 0 0 1 0 0 0 1 0" color-interpolation-filters="sRGB"/></filter><g/><clipPath id="aca4c25153"><path d="M 0 0 L 375 0 L 375 375 L 0 375 Z M 0 0 " clip-rule="nonzero"/></clipPath><clipPath id="80cfef7bca"><rect x="0" width="375" y="0" height="375"/></clipPath><clipPath id="65aba73032"><rect x="0" width="375" y="0" height="375"/></clipPath><clipPath id="2367846dae"><rect x="0" width="375" y="0" height="375"/></clipPath><mask id="4b3ed90c00"><g filter="url(#e33119190c)"><g transform="matrix(1, 0, 0, 1, 0, 0)"><g clip-path="url(#2367846dae)"><g transform="matrix(1, 0, 0, 1, 0, 0)"><g clip-path="url(#65aba73032)"><g fill="#000000" fill-opacity="1"><g transform="translate(78.883915, 246.855465)"><g><path d="M 7.769531 0 L 75.277344 0 C 77.6875 0 79.832031 -2.144531 79.832031 -4.554688 L 79.832031 -20.894531 C 79.832031 -23.304688 81.972656 -25.449219 84.386719 -25.449219 L 100.726562 -25.449219 C 103.136719 -25.449219 105.28125 -27.59375 105.28125 -30.003906 L 105.28125 -97.511719 C 105.28125 -99.921875 103.136719 -102.066406 100.726562 -102.066406 L 84.386719 -102.066406 C 81.972656 -102.066406 79.832031 -104.210938 79.832031 -106.621094 L 79.832031 -122.960938 C 79.832031 -125.371094 77.6875 -127.515625 75.277344 -127.515625 L 7.769531 -127.515625 C 5.359375 -127.515625 3.214844 -125.371094 3.214844 -122.960938 L 3.214844 -106.621094 C 3.214844 -104.210938 5.359375 -102.066406 7.769531 -102.066406 L 75.277344 -102.066406 C 77.6875 -102.066406 79.832031 -99.921875 79.832031 -97.511719 L 79.832031 -81.171875 C 79.832031 -78.757812 77.6875 -76.617188 75.277344 -76.617188 L 33.21875 -76.617188 C 30.808594 -76.617188 28.664062 -74.472656 28.664062 -72.0625 L 28.664062 -55.453125 C 28.664062 -53.042969 30.808594 -50.898438 33.21875 -50.898438 L 75.277344 -50.898438 C 77.6875 -50.898438 79.832031 -48.757812 79.832031 -46.34375 L 79.832031 -30.003906 C 79.832031 -27.59375 77.6875 -25.449219 75.277344 -25.449219 L 7.769531 -25.449219 C 5.359375 -25.449219 3.214844 -23.304688 3.214844 -20.894531 L 3.214844 -4.554688 C 3.214844 -2.144531 5.359375 0 7.769531 0 Z M 7.769531 0 "/></g></g></g><g fill="#000000" fill-opacity="1"><g transform="translate(187.364284, 246.855465)"><g><path d="M 33.21875 0 L 100.726562 0 C 103.136719 0 105.28125 -2.144531 105.28125 -4.554688 L 105.28125 -20.894531 C 105.28125 -23.304688 103.136719 -25.449219 100.726562 -25.449219 L 33.21875 -25.449219 C 30.808594 -25.449219 28.664062 -27.59375 28.664062 -30.003906 L 28.664062 -46.34375 C 28.664062 -48.757812 30.808594 -50.898438 33.21875 -50.898438 L 100.726562 -50.898438 C 103.136719 -50.898438 105.28125 -53.042969 105.28125 -55.453125 L 105.28125 -97.511719 C 105.28125 -99.921875 103.136719 -102.066406 100.726562 -102.066406 L 84.386719 -102.066406 C 81.972656 -102.066406 79.832031 -104.210938 79.832031 -106.621094 L 79.832031 -122.960938 C 79.832031 -125.371094 77.6875 -127.515625 75.277344 -127.515625 L 33.21875 -127.515625 C 30.808594 -127.515625 28.664062 -125.371094 28.664062 -122.960938 L 28.664062 -106.621094 C 28.664062 -104.210938 26.519531 -102.066406 24.109375 -102.066406 L 7.769531 -102.066406 C 5.359375 -102.066406 3.214844 -99.921875 3.214844 -97.511719 L 3.214844 -30.003906 C 3.214844 -27.59375 5.359375 -25.449219 7.769531 -25.449219 L 24.109375 -25.449219 C 26.519531 -25.449219 28.664062 -23.304688 28.664062 -20.894531 L 28.664062 -4.554688 C 28.664062 -2.144531 30.808594 0 33.21875 0 Z M 28.664062 -81.171875 L 28.664062 -97.511719 C 28.664062 -99.921875 30.808594 -102.066406 33.21875 -102.066406 L 75.277344 -102.066406 C 77.6875 -102.066406 79.832031 -99.921875 79.832031 -97.511719 L 79.832031 -81.171875 C 79.832031 -78.757812 77.6875 -76.617188 75.277344 -76.617188 L 33.21875 -76.617188 C 30.808594 -76.617188 28.664062 -78.757812 28.664062 -81.171875 Z M 28.664062 -81.171875 "/></g></g></g></g></g></g></g></g></mask><clipPath id="968f4410d0"><path d="M 0 0 L 375 0 L 375 375 L 0 375 Z M 0 0 " clip-rule="nonzero"/></clipPath><clipPath id="c5098ae127"><rect x="0" width="375" y="0" height="375"/></clipPath><clipPath id="3cf47e2e04"><rect x="0" width="375" y="0" height="375"/></clipPath><clipPath id="3e13ade799"><rect x="0" width="375" y="0" height="375"/></clipPath></defs><g transform="matrix(1, 0, 0, 1, 0, 0)"><g clip-path="url(#3e13ade799)"><g transform="matrix(1, 0, 0, 1, 0, 0)"><g clip-path="url(#3cf47e2e04)"><g mask="url(#4b3ed90c00)"><g transform="matrix(1, 0, 0, 1, 0, 0)"><g clip-path="url(#c5098ae127)"><g clip-path="url(#968f4410d0)"><rect x="-201.3" fill="#771128" width="777.6" height="777.599981" y="-201.299995"/></g></g></g></g></g></g></g></g></svg>